<svg xmlns="http://www.w3.org/2000/svg" viewBox="0 0 447 100" role="img" aria-label="RasanAI"><title>RasanAI</title><rect width="100" height="100" rx="22" fill="#1a2160"/><path d="M28 75V31M28 52C28 37 39 29 59 29" fill="none" stroke="#eff0f2" stroke-width="12" stroke-linecap="round"/><path d="M67 19l10 10-10 10-10-10z" fill="#eeb219"/><path transform="translate(115.90 77.26) scale(0.1080)" d="M372.78941529244184 0.0 360.2976599037647 -133.4489828646183Q357.4183992370963 -163.73048673570156 348.5049800388515 -184.37684454396367Q339.5915608406067 -205.02320235222578 321.22946874424815 -215.86692183464766Q302.8673766478896 -226.71064131706953 271.17224518954754 -226.71064131706953L148.12993485480547 -227.05063765496016V-329.5557202324271L278.3297789916396 -329.98435141146183Q325.4376606941223 -330.0729862526059 345.5807409584522 -352.71724350750446Q365.72382122278214 -375.361500762403 365.72382122278214 -419.2041603848338V-442.7569302916527Q365.72382122278214 -487.1806217506528 345.7840573936701 -509.4814380146563Q325.84429356455803 -531.7822542786598 278.0195824056864 -531.7822542786598H146.46172889322042V-639.0H293.9818190410733Q399.70929426699877 -639.0 448.0685738809407 -594.670671325177Q496.4278534948826 -550.3413426503539 496.4278534948826 -468.1714471653104V-445.29098495841026Q496.4278534948826 -384.2269903346896 467.500046659261 -348.8017025999725Q438.5722398236394 -313.37641486525536 376.2206711322069 -307.1303939446807V-289.4691016152501L342.7306643873453 -306.9978678971529Q397.35579884052277 -302.8747010156512 426.6172692477703 -283.420753441751Q455.87873965501785 -263.9668058678508 469.13928347826004 -229.5281229801476Q482.3998273015022 -195.08944009244442 488.493760406971 -144.96774984896183L506.20925195515156 0.0ZM56.48414884507656 0.0V-639.0H184.4166828840971V-294.9650989472866L185.1397053450346 -244.60951505601406V0.0ZM823.0960138517397 0.0 827.5247927534359 -112.50171237438917 823.6506826284307 -119.51687607169151V-289.93336553126574L822.9558514806407 -313.4253277629614Q822.9558514806407 -358.48238030076027 800.7299725304323 -379.4699686393142Q778.5040935802239 -400.4575569778681 726.4114596101421 -400.4575569778681Q682.5933333191055 -400.4575569778681 643.0663901309448 -388.0859246738255Q603.5394469427841 -375.7142923697829 570.085873171963 -359.7957673743367L580.2936229857581 -463.2907770872116Q600.2469595449942 -473.9991087988019 626.0080526846426 -483.4639816656709Q651.7691458242911 -492.92885453253984 683.1336744616705 -498.86956337466836Q714.4982030990499 -504.8102722167969 750.7345117631334 -504.8102722167969Q805.6133785027044 -504.8102722167969 843.5428007061558 -491.51223511621356Q881.4722229096072 -478.21419801563025 904.6231215710717 -453.06156434863806Q927.7740202325361 -427.90893068164587 938.295518465616 -392.1190220192075Q948.817016698696 -356.3291133567691 948.817016698696 -311.62234777212143V0.0ZM684.1317521485465 10.09464680403471Q617.860108256616 10.09464680403471 583.7822159717756 -26.130167864263058Q549.7043236869353 -62.354982532560825 549.7043236869353 -129.65023523569107V-147.46154092252254Q549.7043236869353 -217.7216622903943 589.5556707943755 -251.33510099351406Q629.4070179018157 -284.9485396966338 715.9029306101578 -299.128713414073L835.1508303510922 -318.75030517578125L844.4292935210245 -234.79486570507288L738.6318124460953 -216.8043725937605Q703.1204565170186 -210.80523401498795 688.1176368112641 -196.9362553395331Q673.1148171055096 -183.06727666407824 673.1148171055096 -156.56673707813025V-147.90507573634386Q673.1148171055096 -120.77630821615458 687.3640277761 -105.61429975554347Q701.6132384466904 -90.45229129493237 733.1761393028277 -90.45229129493237Q759.123894535281 -90.45229129493237 777.6908271762508 -99.33124781772494Q796.2577598172205 -108.21020434051752 808.1624343286234 -123.1746780462563Q820.0671088400262 -138.1391517519951 825.2329767423647 -156.5113156810403L842.2601519825834 -95.27870583534241H821.8190363126772Q815.0193467664498 -65.83212825655937 799.8418485711294 -41.97389457002282Q784.664350375809 -18.11566088348627 756.8701332065242 -4.0105070397257805Q729.0759160372394 10.09464680403471 684.1317521485465 10.09464680403471ZM1177.3436067482387 10.434643141925335Q1125.6735496824538 10.434643141925335 1085.1756838491117 0.14739680662751198Q1044.6778180157696 -10.139849528670311 1016.5190537800943 -23.136231794953346L1006.3826727872645 -135.03511806577444Q1039.6173904096638 -119.23356694728136 1078.8555156072532 -107.21855716407299Q1118.0936408048426 -95.20354738086462 1164.9635318374192 -95.20354738086462Q1205.857897967652 -95.20354738086462 1223.6820573775028 -106.92605207487941Q1241.5062167873537 -118.6485567688942 1241.5062167873537 -141.47153122723103V-145.78292640298605Q1241.5062167873537 -161.32534790039062 1233.1944495780324 -171.69001629948616Q1224.8826823687111 -182.0546846985817 1203.4895896470105 -191.53873093426228Q1182.0964969253098 -201.02277716994286 1143.0042478894745 -213.45045743882656Q1091.4785777410423 -229.13077887892723 1061.1870467817341 -248.8126542828977Q1030.895515822426 -268.4945296868682 1017.7026870405232 -295.610691383481Q1004.5098582586204 -322.72685308009386 1004.5098582586204 -359.8787439316511V-365.5220808684826Q1004.5098582586204 -434.1338549628854 1050.2710745004867 -469.3705468662083Q1096.032290742353 -504.60723876953125 1185.087080851749 -504.60723876953125Q1235.202887394086 -504.60723876953125 1274.1965782163595 -494.0429410338402Q1313.190269038633 -483.4786432981491 1338.937520392791 -469.27665231376886L1349.0739013856207 -365.66667801886797Q1319.14408208485 -380.7368566542864 1282.0835834188317 -391.24151508137584Q1245.0230847528135 -401.7461735084653 1202.1829601531779 -401.7461735084653Q1174.934873767749 -401.7461735084653 1158.826161161617 -396.7803531959653Q1142.717448555485 -391.8145328834653 1135.8361785938894 -382.48670126497746Q1128.9549086322938 -373.1588696464896 1128.9549086322938 -359.99600426107645V-356.7593001946807Q1128.9549086322938 -342.10535080730915 1137.2806528923963 -331.4324784576893Q1145.6063971524989 -320.7596061080694 1165.9935965171014 -311.52283687889576Q1186.380795881704 -302.2860676497221 1222.1915723016416 -291.4002852141857Q1274.1737944116746 -276.39104045182467 1306.047045548067 -258.64268493652344Q1337.9202966844593 -240.8943294212222 1352.5822559041833 -214.51456418260932Q1367.2442151239072 -188.13479894399643 1367.2442151239072 -146.13370031118393V-138.79453207552433Q1367.2442151239072 -64.86781170964241 1320.3666200978612 -27.216584283858538Q1273.4890250718151 10.434643141925335 1177.3436067482387 10.434643141925335ZM1678.0219397776657 0.0 1682.450718679362 -112.50171237438917 1678.5766085543567 -119.51687607169151V-289.93336553126574L1677.8817774065667 -313.4253277629614Q1677.8817774065667 -358.48238030076027 1655.6558984563583 -379.4699686393142Q1633.4300195061498 -400.4575569778681 1581.337385536068 -400.4575569778681Q1537.5192592450314 -400.4575569778681 1497.9923160568708 -388.0859246738255Q1458.4653728687101 -375.7142923697829 1425.011799097889 -359.7957673743367L1435.2195489116841 -463.2907770872116Q1455.1728854709202 -473.9991087988019 1480.9339786105686 -483.4639816656709Q1506.695071750217 -492.92885453253984 1538.0596003875964 -498.86956337466836Q1569.4241290249759 -504.8102722167969 1605.6604376890593 -504.8102722167969Q1660.5393044286304 -504.8102722167969 1698.4687266320818 -491.51223511621356Q1736.3981488355332 -478.21419801563025 1759.5490474969977 -453.06156434863806Q1782.6999461584621 -427.90893068164587 1793.221444391542 -392.1190220192075Q1803.742942624622 -356.3291133567691 1803.742942624622 -311.62234777212143V0.0ZM1539.0576780744725 10.09464680403471Q1472.786034182542 10.09464680403471 1438.7081418977016 -26.130167864263058Q1404.6302496128612 -62.354982532560825 1404.6302496128612 -129.65023523569107V-147.46154092252254Q1404.6302496128612 -217.7216622903943 1444.4815967203015 -251.33510099351406Q1484.3329438277417 -284.9485396966338 1570.8288565360838 -299.128713414073L1690.0767562770181 -318.75030517578125L1699.3552194469505 -234.79486570507288L1593.5577383720213 -216.8043725937605Q1558.0463824429446 -210.80523401498795 1543.04356273719 -196.9362553395331Q1528.0407430314356 -183.06727666407824 1528.0407430314356 -156.56673707813025V-147.90507573634386Q1528.0407430314356 -120.77630821615458 1542.289953702026 -105.61429975554347Q1556.5391643726164 -90.45229129493237 1588.1020652287536 -90.45229129493237Q1614.049820461207 -90.45229129493237 1632.6167531021767 -99.33124781772494Q1651.1836857431465 -108.21020434051752 1663.0883602545493 -123.1746780462563Q1674.9930347659522 -138.1391517519951 1680.1589026682907 -156.5113156810403L1697.1860779085093 -95.27870583534241H1676.7449622386032Q1669.9452726923757 -65.83212825655937 1654.7677744970554 -41.97389457002282Q1639.590276301735 -18.11566088348627 1611.7960591324502 -4.0105070397257805Q1584.0018419631654 10.09464680403471 1539.0576780744725 10.09464680403471ZM2168.780826830478 0.0V-309.3827750533819Q2168.780826830478 -336.93564535677433 2162.076617424549 -356.61097333952785Q2155.3724080186203 -376.28630132228136 2139.778460023166 -386.90280667319894Q2124.184512027712 -397.5193120241165 2097.215873041363 -397.5193120241165Q2073.828232572587 -397.5193120241165 2056.377104778947 -388.57316169142723Q2038.9259769853068 -379.62701135873795 2027.6711472470176 -364.41253765299916Q2016.4163175087285 -349.1980639472604 2011.0537568863344 -329.81482700258493L1989.0617691513014 -396.8599396497011H2013.8353189911556Q2021.0006209175897 -427.021041944623 2037.3740901734545 -451.1912897825241Q2053.747559429319 -475.3615376204252 2082.3054627004876 -489.6443918570876Q2110.863365971656 -503.92724609375 2154.591890589507 -503.92724609375Q2204.561104544611 -503.92724609375 2235.8790023226156 -484.1377154365182Q2267.19690010062 -464.3481847792864 2282.098224976273 -425.56235367804766Q2296.9995498519256 -386.77652257680893 2296.9995498519256 -328.93791338801384V0.0ZM1885.1686894755674 0.0V-493.8325992897153H2012.7099950920654L2008.129562550397 -381.72238586843014L2013.387412497015 -373.382298566401V0.0ZM2345.652775467822 0.0 2502.416641504952 -639.0H2703.124188163766L2859.54734416444 0.0H2728.32476619769L2608.59307129074 -550.2569177597761H2596.947758377978L2476.8753534345715 0.0ZM2475.8893228187053 -159.84552827477455V-263.40782998502254H2728.168059171626V-159.84552827477455ZM3050.7383518682586 0.0H2919.038904161917V-639.0H3050.7383518682586Z" fill="#1a2160"/></svg>
